<svg id="Layer_1" data-name="Layer 1" xmlns="http://www.w3.org/2000/svg" viewBox="0 0 1124.8 413.33"><defs><style>.cls-1{fill:#d53535;}.cls-1,.cls-4{fill-rule:evenodd;}.cls-2{font-size:272.06px;font-family:SourceCodePro-Bold, Source Code Pro;font-weight:700;}.cls-2,.cls-3,.cls-4,.cls-6{fill:#fefefe;}.cls-3{font-size:313.1px;font-family:SourceCodePro-Regular, Source Code Pro;}.cls-5{fill:#fff;}</style></defs><title>Artboard 1updatewhite</title><polygon class="cls-1" points="0 205.99 0 32.35 346.94 32.35 346.94 379.63 0 379.63 0 205.99"/><text class="cls-2" transform="translate(18.85 304.51)">&gt;</text><text class="cls-3" transform="translate(143.64 259.88)">s</text><polygon class="cls-4" points="143.64 308.49 143.64 297.35 232.78 297.35 232.78 319.63 143.64 319.63 143.64 308.49"/><path class="cls-5" d="M381.79,199.9A93.82,93.82,0,0,0,408.91,216q15.3,6,38.94,6a74.49,74.49,0,0,0,20.76-2.6,50,50,0,0,0,15-6.89,29,29,0,0,0,9.09-9.95,24.68,24.68,0,0,0,3-11.78,25.74,25.74,0,0,0-2-9.95q-2-4.74-7.88-9t-16.52-8.42a211,211,0,0,0-27.57-8.11,189.78,189.78,0,0,1-23.18-7,94.72,94.72,0,0,1-18.18-9,42.61,42.61,0,0,1-12-11.17,22.63,22.63,0,0,1-4.24-13.16,34.26,34.26,0,0,1,3.18-14.54,32.24,32.24,0,0,1,10-12.09,52.77,52.77,0,0,1,17.12-8.26q10.3-3.06,24.85-3.06a94.61,94.61,0,0,1,29.09,4.9q15.15,4.9,25.45,12.86L488.46,102a86.11,86.11,0,0,0-22-11.94,78.7,78.7,0,0,0-27.73-4.59q-12.73,0-21.36,2.45a42.49,42.49,0,0,0-13.94,6.43,21.84,21.84,0,0,0-7.42,9.18,28.11,28.11,0,0,0-2.12,10.71q0,11,13.48,18.67t36.82,13.47a296.54,296.54,0,0,1,29.7,9q11.82,4.44,18.79,9.64t9.85,11.33a32.91,32.91,0,0,1-1.06,29.08,38.94,38.94,0,0,1-11.36,12.86,60.73,60.73,0,0,1-18.18,8.88,82.78,82.78,0,0,1-24.7,3.37q-22.73,0-40.6-6.89A127.72,127.72,0,0,1,376,207.25Z"/><path class="cls-5" d="M506.64,80.53h10.3l25.15,98.56q2.42,10.1,4.85,19.44t4.54,19.13h1.21q2.42-9.79,5-19.13t5-19.44l25.15-98.56h12.73l25.15,98.56q2.42,10.1,5,19.44t5,19.13h1.21q2.42-9.79,4.85-19.13t4.85-19.44l24.85-98.56h9.7L642.39,226.84H629.66l-24.85-95.5q-2.73-10.71-5-20.81t-5.3-20.81H593.3q-2.43,10.72-4.7,21.12T583,132l-24.24,94.89H546Z"/><path class="cls-5" d="M680.57,154a82,82,0,0,1,6.06-32.14,73.52,73.52,0,0,1,16.21-24.33A71.94,71.94,0,0,1,726,82.21a69.58,69.58,0,0,1,26.67-5.36,72.27,72.27,0,0,1,26.36,4.59,56.45,56.45,0,0,1,20.3,13.31,59,59,0,0,1,13,21.12,81.93,81.93,0,0,1,4.55,28.31v4.74a23.76,23.76,0,0,1-.61,5.05H690.27a73.7,73.7,0,0,0,4.85,27.09,66.39,66.39,0,0,0,13.48,21.58,59.24,59.24,0,0,0,20.91,14.23,71.43,71.43,0,0,0,27.42,5.05,76.54,76.54,0,0,0,27.27-4.59,98.69,98.69,0,0,0,22.42-11.94l4.24,8q-4.85,3.06-10.15,6.12a77,77,0,0,1-12,5.51,91,91,0,0,1-32.42,5.51,82.15,82.15,0,0,1-29.24-5.2A69.6,69.6,0,0,1,703,210.16a73.06,73.06,0,0,1-16.36-24Q680.56,172.06,680.57,154Zm127.27-8.57q0-30-15.3-45t-39.85-15a58.53,58.53,0,0,0-22.12,4.29,60.77,60.77,0,0,0-18.94,12.09,69.44,69.44,0,0,0-21.36,43.62Z"/><path class="cls-5" d="M861.17,80.53H869l1.21,36.73h.61a103.56,103.56,0,0,1,29.39-28.92q17.57-11.48,40-11.48A94.45,94.45,0,0,1,955,78.08a47.21,47.21,0,0,1,14.7,4.9l-3,8.57A109,109,0,0,0,953,87.26,65.65,65.65,0,0,0,939,86q-18.79,0-35.91,10.71t-32.88,36.42v93.66h-9.09Z"/><path class="cls-5" d="M983,80.53h9.7l42.42,94.89q5.15,11,9.85,21.43t8.94,20.2h1.21q4.24-9.79,8.64-20.2t9.55-21.43l42.42-94.89h9.09l-66.06,146.31h-9.09Z"/><path class="cls-5" d="M393.8,291.31H372V280.93h56v10.39H406.09v58.92H393.8Z"/><path class="cls-5" d="M441.27,280.93h44.3v10.39h-32V309H480.7V319.4H453.57v20.45h33.07v10.39H441.27Z"/><path class="cls-5" d="M498.72,315.79a44.44,44.44,0,0,1,2.44-15.21,33.36,33.36,0,0,1,6.73-11.39,28.5,28.5,0,0,1,10.17-7.1,33,33,0,0,1,12.77-2.44,23.79,23.79,0,0,1,11.34,2.65,35,35,0,0,1,8.37,6L543.65,296A21.26,21.26,0,0,0,538,291.9a16,16,0,0,0-7.15-1.54,18,18,0,0,0-7.95,1.75,17.42,17.42,0,0,0-6.15,5,24,24,0,0,0-4,7.9,35.73,35.73,0,0,0-1.43,10.49,36.65,36.65,0,0,0,1.43,10.65,23.35,23.35,0,0,0,4,7.95,17.76,17.76,0,0,0,6.25,5,18.55,18.55,0,0,0,8.11,1.75,15.69,15.69,0,0,0,7.58-1.8,23.77,23.77,0,0,0,6.31-5.09l6.78,7.53a30.29,30.29,0,0,1-9.54,7.47,26.62,26.62,0,0,1-11.87,2.6A33,33,0,0,1,518,349.18a28.14,28.14,0,0,1-10.07-6.89,32.28,32.28,0,0,1-6.73-11.23A44.31,44.31,0,0,1,498.72,315.79Z"/><path class="cls-5" d="M562.09,280.93h12.29V308.8h23.74V280.93h12.29v69.31H598.12V319.5H574.38v30.73H562.09Z"/><path class="cls-5" d="M624.41,280.93h12.5l18.55,39,6.46,14.73h.32q-.42-5.41-1.06-11.6a118,118,0,0,1-.64-12v-30.1h11.76v69.31H659.8l-18.55-39.11-6.46-14.62h-.32q.42,5.51,1.06,11.55a113.38,113.38,0,0,1,.64,11.87v30.31H624.41Z"/><path class="cls-5" d="M710.46,351.51A24.64,24.64,0,0,1,699.38,349a23.93,23.93,0,0,1-8.58-7.21,36,36,0,0,1-5.56-11.39,52.46,52.46,0,0,1-2-15.16,51.53,51.53,0,0,1,2-15,34.16,34.16,0,0,1,5.56-11.18,24.09,24.09,0,0,1,8.58-7,26.37,26.37,0,0,1,22.15,0,24.12,24.12,0,0,1,8.58,7,34.24,34.24,0,0,1,5.56,11.18,51.6,51.6,0,0,1,2,15,52.53,52.53,0,0,1-2,15.16,36.1,36.1,0,0,1-5.56,11.39,24,24,0,0,1-8.58,7.21A24.65,24.65,0,0,1,710.46,351.51Zm0-10.7a10.56,10.56,0,0,0,6-1.8,14.92,14.92,0,0,0,4.61-5.14,29,29,0,0,0,3-8.05,48.29,48.29,0,0,0,1.06-10.54q0-11.66-4-18.28t-10.65-6.62q-6.68,0-10.65,6.62t-4,18.28a50.53,50.53,0,0,0,1,10.54,27.92,27.92,0,0,0,2.91,8.05,14.91,14.91,0,0,0,4.61,5.14A10.73,10.73,0,0,0,710.46,340.8Z"/><path class="cls-5" d="M753.49,280.93h12.19v58.92h32.54v10.39H753.49Z"/><path class="cls-5" d="M834.67,351.51A24.64,24.64,0,0,1,823.59,349a23.93,23.93,0,0,1-8.58-7.21,36,36,0,0,1-5.56-11.39,52.46,52.46,0,0,1-2-15.16,51.53,51.53,0,0,1,2-15A34.16,34.16,0,0,1,815,289.09a24.09,24.09,0,0,1,8.58-7,26.37,26.37,0,0,1,22.15,0,24.12,24.12,0,0,1,8.58,7,34.24,34.24,0,0,1,5.56,11.18,51.6,51.6,0,0,1,2,15,52.53,52.53,0,0,1-2,15.16,36.1,36.1,0,0,1-5.56,11.39,24,24,0,0,1-8.58,7.21A24.65,24.65,0,0,1,834.67,351.51Zm0-10.7a10.56,10.56,0,0,0,6-1.8,14.92,14.92,0,0,0,4.61-5.14,29,29,0,0,0,3-8.05,48.29,48.29,0,0,0,1.06-10.54q0-11.66-4-18.28t-10.65-6.62Q828,290.36,824,297t-4,18.28a50.53,50.53,0,0,0,1,10.54,27.92,27.92,0,0,0,2.91,8.05,14.91,14.91,0,0,0,4.61,5.14A10.73,10.73,0,0,0,834.67,340.8Z"/><path class="cls-5" d="M870.06,315.79a45.23,45.23,0,0,1,2.38-15.26A33.71,33.71,0,0,1,879,289.19a27.71,27.71,0,0,1,10-7.1,32,32,0,0,1,12.56-2.44,23.62,23.62,0,0,1,11.71,2.7,32.44,32.44,0,0,1,7.9,6L914.36,296a23.44,23.44,0,0,0-5.35-4,15.52,15.52,0,0,0-7.47-1.59,16.49,16.49,0,0,0-7.58,1.75,17.35,17.35,0,0,0-5.93,5,23.85,23.85,0,0,0-3.87,7.9,37,37,0,0,0-1.38,10.49q0,11.87,4.82,18.6t14.15,6.73A17.69,17.69,0,0,0,907,340a9.65,9.65,0,0,0,4-2.28V322.79h-12V312.72h23.1v30.52a28.88,28.88,0,0,1-9,5.83A30.17,30.17,0,0,1,901,351.51a31.9,31.9,0,0,1-12.24-2.33,26.87,26.87,0,0,1-9.8-6.89,33,33,0,0,1-6.52-11.23A45.23,45.23,0,0,1,870.06,315.79Z"/><path class="cls-5" d="M936,339.85h16.75V291.31H936V280.93h45.78v10.39H965v48.54h16.75v10.39H936Z"/><path class="cls-5" d="M1000.2,280.93h44.3v10.39h-32V309h27.13V319.4H1012.5v20.45h33.07v10.39H1000.2Z"/><path class="cls-5" d="M1064.64,333a33.46,33.46,0,0,0,8.85,5.67,24.61,24.61,0,0,0,10,2.17q6.36,0,9.64-2.44a7.66,7.66,0,0,0,3.29-6.46,7.17,7.17,0,0,0-.85-3.6,8.31,8.31,0,0,0-2.38-2.6,20.14,20.14,0,0,0-3.71-2.07q-2.17-1-4.72-1.91l-9.43-4.13a34.65,34.65,0,0,1-5.41-2.65,22.61,22.61,0,0,1-4.77-3.82,17.32,17.32,0,0,1-3.39-5.19,17.07,17.07,0,0,1-1.27-6.78,16.73,16.73,0,0,1,1.8-7.68,19.54,19.54,0,0,1,5-6.2,23.4,23.4,0,0,1,7.58-4.13,30.18,30.18,0,0,1,9.7-1.48A31.49,31.49,0,0,1,1096.7,282a33.61,33.61,0,0,1,10.12,6.41l-6.36,7.84a31.22,31.22,0,0,0-7.31-4.35,22.14,22.14,0,0,0-8.58-1.59q-5.4,0-8.53,2.17a6.9,6.9,0,0,0-3.13,6,6.07,6.07,0,0,0,1,3.44,9.39,9.39,0,0,0,2.6,2.54,19.19,19.19,0,0,0,3.82,2q2.17.85,4.5,1.8l9.11,3.92a37,37,0,0,1,6,3,21.78,21.78,0,0,1,4.77,3.92,16.21,16.21,0,0,1,3.13,5.14,18.79,18.79,0,0,1,1.11,6.73,18.4,18.4,0,0,1-1.75,7.95,19.4,19.4,0,0,1-5,6.52,24.52,24.52,0,0,1-8.05,4.45,33.1,33.1,0,0,1-10.81,1.64,37.6,37.6,0,0,1-14-2.65,37.21,37.21,0,0,1-11.87-7.52Z"/><polygon class="cls-1" points="0 205.99 0 32.35 346.94 32.35 346.94 379.63 0 379.63 0 205.99"/><path class="cls-6" d="M150.53,228.06l-105,68V259.89l72.09-45.16v-1.09L45.51,168.48V132.29l105,68Z"/><path class="cls-6" d="M178.71,222.93a117.77,117.77,0,0,0,27.55,15q14.71,5.64,35.38,5.64t30.68-6.89q10-6.88,10-16.91,0-8.76-10.8-15.65t-38.67-13.78a169.92,169.92,0,0,1-22.39-6.89,85.8,85.8,0,0,1-18.32-9.55,51.21,51.21,0,0,1-12.52-12.05,24.71,24.71,0,0,1-4.7-14.72A37,37,0,0,1,179,130.09a38.7,38.7,0,0,1,12.05-13.78,61.38,61.38,0,0,1,20-9.08A105.64,105.64,0,0,1,238.82,104a99.29,99.29,0,0,1,33.5,5.79,117.22,117.22,0,0,1,27.55,13.62L287.35,140a90.1,90.1,0,0,0-22.23-11.58,77.31,77.31,0,0,0-26.3-4.38A78.39,78.39,0,0,0,221,125.71a35.25,35.25,0,0,0-11.58,4.7,17.39,17.39,0,0,0-6.26,7,20,20,0,0,0-1.88,8.45q0,9.39,12.84,15.5t33.5,11.43q31,7.83,45.87,17.85t14.87,27.55a36.43,36.43,0,0,1-4.38,17.53,43.29,43.29,0,0,1-13,14.4A67,67,0,0,1,269.66,260a106.36,106.36,0,0,1-29,3.6,118.13,118.13,0,0,1-41.49-7,150.26,150.26,0,0,1-33-16.75Z"/><polygon class="cls-4" points="143.64 308.49 143.64 297.35 232.78 297.35 232.78 319.63 143.64 319.63 143.64 308.49"/></svg>