<svg id="Layer_1" data-name="Layer 1" xmlns="http://www.w3.org/2000/svg" viewBox="0 0 1200.84 347.28"><defs><style>.cls-1{fill:none;}.cls-2{fill:#d53535;}.cls-2,.cls-5{fill-rule:evenodd;}.cls-3{font-size:272.06px;font-family:SourceCodePro-Bold, Source Code Pro;font-weight:700;}.cls-3,.cls-4,.cls-5{fill:#fefefe;}.cls-4{font-size:313.1px;font-family:SourceCodePro-Regular, Source Code Pro;}.cls-6{fill:#fff;}</style></defs><title>Artboard 1update-white</title><rect class="cls-1" x="-35.09" y="-37.58" width="1196.48" height="450.48"/><polygon class="cls-2" points="0 173.64 0 0 346.94 0 346.94 347.28 0 347.28 0 173.64"/><text class="cls-3" transform="translate(18.85 272.16)">&gt;</text><text class="cls-4" transform="translate(143.64 227.53)">s</text><polygon class="cls-5" points="143.64 276.14 143.64 265 232.78 265 232.78 287.29 143.64 287.29 143.64 276.14"/><path class="cls-6" d="M444.82,176.77a96.56,96.56,0,0,0,27.24,15.61q15.3,5.82,38,5.82,23,0,34.43-8.72t11.48-20.35a21.27,21.27,0,0,0-2.14-9.34q-2.15-4.43-8-8.57a71.31,71.31,0,0,0-16.07-8,245.82,245.82,0,0,0-26.48-7.8,199,199,0,0,1-23.11-7,91.54,91.54,0,0,1-18.21-9,45.78,45.78,0,0,1-12.09-11.17,22.42,22.42,0,0,1-4.44-13.47,35.28,35.28,0,0,1,3.37-15.15A33.21,33.21,0,0,1,459.36,67a55,55,0,0,1,18.06-8.42,97.44,97.44,0,0,1,55.71,2.14A99.64,99.64,0,0,1,559.3,73.62L552,83.41a84.58,84.58,0,0,0-22-11.78,79.57,79.57,0,0,0-27.24-4.44,77.88,77.88,0,0,0-20.51,2.3,41.46,41.46,0,0,0-13.31,6,21.39,21.39,0,0,0-7.19,8.42,23.89,23.89,0,0,0-2.14,9.95q0,10.72,13.31,17.91t36.27,12.7a258.91,258.91,0,0,1,28.77,8.72,82.65,82.65,0,0,1,18.82,9.64,31.66,31.66,0,0,1,10.25,11.48A32.11,32.11,0,0,1,570,168.5a33.21,33.21,0,0,1-4,15.76,38.73,38.73,0,0,1-11.78,13.16,62.75,62.75,0,0,1-19.13,9,90.3,90.3,0,0,1-25.71,3.37q-23,0-41-6.89a135.85,135.85,0,0,1-31.22-16.38Z"/><path class="cls-6" d="M571.23,59.23h14.39l23.57,95.19q2.45,10.1,4.74,19.74t4.13,19.44h1.22q2.45-9.79,4.9-19.44t4.9-19.74l23.57-92.74h15l23.57,92.74q2.45,10.1,4.9,19.74T701,193.6h1.22q2.45-9.79,4.59-19.44t4.59-19.74l23.26-95.19h13.47L710.81,206.15H693.36l-23.26-90q-2.45-10.71-4.75-21t-5-21h-1.22q-2.45,10.1-4.59,20.66t-5.2,21.88l-22.65,89.38H609.19Z"/><path class="cls-6" d="M747.53,133q0-18.06,6.27-32.44a75.4,75.4,0,0,1,16.53-24.33,72.72,72.72,0,0,1,23.42-15.3A71.66,71.66,0,0,1,821,55.56a74.88,74.88,0,0,1,27.24,4.74,56.74,56.74,0,0,1,34,34.74,82.51,82.51,0,0,1,4.59,28.47V129a25.44,25.44,0,0,1-.61,5.51H761.61a72,72,0,0,0,5,25.56A58.39,58.39,0,0,0,800,193.45a69.4,69.4,0,0,0,26.17,4.74,75.9,75.9,0,0,0,26.63-4.44,104.82,104.82,0,0,0,22.34-11.48l5.51,10.41a145.25,145.25,0,0,1-23.26,11.78q-13.16,5.35-32.44,5.36a85.85,85.85,0,0,1-30-5.2,70.65,70.65,0,0,1-41.32-39.33Q747.53,151.06,747.53,133Zm126.11-9.49q0-27.85-14.23-42.09T821.3,67.19A59.15,59.15,0,0,0,800.18,71a55.26,55.26,0,0,0-18.06,11.17,65.7,65.7,0,0,0-20.51,41.32Z"/><path class="cls-6" d="M930,59.23h11.63l1.53,36.12h.61a101.19,101.19,0,0,1,29.54-28.62,72.41,72.41,0,0,1,39.64-11.17,92.42,92.42,0,0,1,14.85,1.22,48.1,48.1,0,0,1,14.54,4.9l-3.67,11.94a121.7,121.7,0,0,0-13.62-4,69.25,69.25,0,0,0-14.23-1.22,65.22,65.22,0,0,0-35,10.41q-16.69,10.41-32,35.51v91.83H930Z"/><path class="cls-6" d="M1055.14,59.23h14.08l40.4,92.13q10.1,22,18.37,42.24h1.22q4.28-10.1,8.57-20.66t9.18-21.58l40.71-92.13h13.16l-65.2,146.92h-14.39Z"/><path class="cls-6" d="M455.89,260.87H434.05V250.49h56v10.39H468.18V319.8H455.89Z"/><path class="cls-6" d="M504.85,250.49h44.3v10.39h-32v17.7h27.13V289H517.14v20.45h33.07V319.8H504.85Z"/><path class="cls-6" d="M563.77,285.35a44.44,44.44,0,0,1,2.44-15.21,33.36,33.36,0,0,1,6.73-11.39,28.5,28.5,0,0,1,10.17-7.1,33,33,0,0,1,12.77-2.44,23.78,23.78,0,0,1,11.34,2.65,35,35,0,0,1,8.37,6l-6.89,7.63a21.28,21.28,0,0,0-5.67-4.08,16,16,0,0,0-7.15-1.54,18,18,0,0,0-7.95,1.75,17.42,17.42,0,0,0-6.15,5,24,24,0,0,0-4,7.9A35.73,35.73,0,0,0,576.38,285a36.65,36.65,0,0,0,1.43,10.65,23.35,23.35,0,0,0,4,7.95,17.76,17.76,0,0,0,6.25,5,18.55,18.55,0,0,0,8.11,1.75,15.7,15.7,0,0,0,7.58-1.8,23.79,23.79,0,0,0,6.3-5.09l6.78,7.53a30.27,30.27,0,0,1-9.54,7.47,26.62,26.62,0,0,1-11.87,2.6A33,33,0,0,1,583,318.74a28.14,28.14,0,0,1-10.07-6.89,32.28,32.28,0,0,1-6.73-11.23A44.31,44.31,0,0,1,563.77,285.35Z"/><path class="cls-6" d="M628.63,250.49h12.29v27.87h23.74V250.49H677V319.8H664.66V289.06H640.92V319.8H628.63Z"/><path class="cls-6" d="M692.43,250.49h12.5l18.55,39,6.46,14.73h.32q-.42-5.41-1.06-11.6a118,118,0,0,1-.64-12v-30.1h11.76V319.8h-12.5l-18.55-39.11-6.46-14.62h-.32q.42,5.51,1.06,11.55a113.38,113.38,0,0,1,.64,11.87V319.8H692.43Z"/><path class="cls-6" d="M780,321.07a24.64,24.64,0,0,1-11.08-2.49,23.93,23.93,0,0,1-8.58-7.21A36,36,0,0,1,754.74,300a52.46,52.46,0,0,1-2-15.16,51.53,51.53,0,0,1,2-15,34.16,34.16,0,0,1,5.56-11.18,24.09,24.09,0,0,1,8.58-7,26.37,26.37,0,0,1,22.15,0,24.12,24.12,0,0,1,8.58,7,34.24,34.24,0,0,1,5.56,11.18,51.6,51.6,0,0,1,2,15,52.53,52.53,0,0,1-2,15.16,36.1,36.1,0,0,1-5.56,11.39,24,24,0,0,1-8.58,7.21A24.65,24.65,0,0,1,780,321.07Zm0-10.7a10.56,10.56,0,0,0,6-1.8,14.92,14.92,0,0,0,4.61-5.14,29,29,0,0,0,3-8.05,48.29,48.29,0,0,0,1.06-10.54q0-11.66-4-18.28T780,259.92q-6.68,0-10.65,6.62t-4,18.28a50.53,50.53,0,0,0,1,10.54,27.92,27.92,0,0,0,2.91,8.05,14.91,14.91,0,0,0,4.61,5.14A10.73,10.73,0,0,0,780,310.36Z"/><path class="cls-6" d="M824.48,250.49h12.19v58.92H869.2V319.8H824.48Z"/><path class="cls-6" d="M907.14,321.07a24.64,24.64,0,0,1-11.08-2.49,23.93,23.93,0,0,1-8.58-7.21A36,36,0,0,1,881.92,300a52.46,52.46,0,0,1-2-15.16,51.53,51.53,0,0,1,2-15,34.16,34.16,0,0,1,5.56-11.18,24.09,24.09,0,0,1,8.58-7,26.37,26.37,0,0,1,22.15,0,24.12,24.12,0,0,1,8.58,7,34.24,34.24,0,0,1,5.56,11.18,51.6,51.6,0,0,1,2,15,52.53,52.53,0,0,1-2,15.16,36.1,36.1,0,0,1-5.56,11.39,24,24,0,0,1-8.58,7.21A24.65,24.65,0,0,1,907.14,321.07Zm0-10.7a10.56,10.56,0,0,0,6-1.8,14.92,14.92,0,0,0,4.61-5.14,29,29,0,0,0,3-8.05,48.29,48.29,0,0,0,1.06-10.54q0-11.66-4-18.28t-10.65-6.62q-6.68,0-10.65,6.62t-4,18.28a50.53,50.53,0,0,0,1,10.54,27.92,27.92,0,0,0,2.91,8.05,14.91,14.91,0,0,0,4.61,5.14A10.73,10.73,0,0,0,907.14,310.36Z"/><path class="cls-6" d="M944,285.35a45.23,45.23,0,0,1,2.38-15.26A33.71,33.71,0,0,1,953,258.75a27.71,27.71,0,0,1,10-7.1,32,32,0,0,1,12.56-2.44,23.62,23.62,0,0,1,11.71,2.7,32.44,32.44,0,0,1,7.9,6l-6.78,7.63a23.44,23.44,0,0,0-5.35-4,15.52,15.52,0,0,0-7.47-1.59,16.49,16.49,0,0,0-7.58,1.75,17.35,17.35,0,0,0-5.93,5,23.85,23.85,0,0,0-3.87,7.9A37,37,0,0,0,956.74,285q0,11.87,4.82,18.6t14.15,6.73a17.69,17.69,0,0,0,5.3-.79,9.65,9.65,0,0,0,4-2.28V292.35h-12V282.28h23.1V312.8a28.88,28.88,0,0,1-9,5.83A30.17,30.17,0,0,1,975,321.07a31.9,31.9,0,0,1-12.24-2.33,26.87,26.87,0,0,1-9.8-6.89,33,33,0,0,1-6.52-11.23A45.23,45.23,0,0,1,944,285.35Z"/><path class="cls-6" d="M1011.42,309.41h16.75V260.87h-16.75V250.49h45.78v10.39h-16.75v48.54h16.75V319.8h-45.78Z"/><path class="cls-6" d="M1077.13,250.49h44.3v10.39h-32v17.7h27.13V289h-27.13v20.45h33.07V319.8h-45.36Z"/><path class="cls-6" d="M1143,302.52a33.46,33.46,0,0,0,8.85,5.67,24.61,24.61,0,0,0,10,2.17q6.36,0,9.64-2.44a7.66,7.66,0,0,0,3.29-6.46,7.17,7.17,0,0,0-.85-3.6,8.31,8.31,0,0,0-2.38-2.6,20.14,20.14,0,0,0-3.71-2.07q-2.17-1-4.72-1.91l-9.43-4.13a34.65,34.65,0,0,1-5.41-2.65,22.61,22.61,0,0,1-4.77-3.82,17.32,17.32,0,0,1-3.39-5.19,17.07,17.07,0,0,1-1.27-6.78,16.73,16.73,0,0,1,1.8-7.68,19.54,19.54,0,0,1,5-6.2,23.4,23.4,0,0,1,7.58-4.13,30.18,30.18,0,0,1,9.7-1.48,31.49,31.49,0,0,1,12.13,2.38,33.61,33.61,0,0,1,10.12,6.41l-6.36,7.84a31.22,31.22,0,0,0-7.31-4.35,22.14,22.14,0,0,0-8.58-1.59q-5.4,0-8.53,2.17a6.9,6.9,0,0,0-3.13,6,6.07,6.07,0,0,0,1,3.44,9.39,9.39,0,0,0,2.6,2.54,19.19,19.19,0,0,0,3.82,2q2.17.85,4.5,1.8l9.11,3.92a37,37,0,0,1,6,3,21.78,21.78,0,0,1,4.77,3.92,16.21,16.21,0,0,1,3.13,5.14,18.79,18.79,0,0,1,1.11,6.73,18.4,18.4,0,0,1-1.75,7.95,19.4,19.4,0,0,1-5,6.52,24.52,24.52,0,0,1-8.05,4.45,33.1,33.1,0,0,1-10.81,1.64,37.6,37.6,0,0,1-14-2.65,37.21,37.21,0,0,1-11.87-7.52Z"/><path class="cls-2" d="M0,173.64V0H346.94V347.28H0ZM150.53,168l-105-68v36.18l72.09,45.16v1.09L45.51,227.54v36.18l105-68Zm15.66,39.53a150.26,150.26,0,0,0,33,16.75,118.13,118.13,0,0,0,41.49,7,106.36,106.36,0,0,0,29-3.6A67,67,0,0,0,291,217.82a43.29,43.29,0,0,0,13-14.4,36.43,36.43,0,0,0,4.38-17.53q0-17.53-14.87-27.55t-45.87-17.85q-20.66-5.32-33.5-11.43t-12.84-15.5a20,20,0,0,1,1.88-8.45,17.39,17.39,0,0,1,6.26-7A35.25,35.25,0,0,1,221,93.36a78.39,78.39,0,0,1,17.85-1.72A77.31,77.31,0,0,1,265.12,96a90.1,90.1,0,0,1,22.23,11.58L299.88,91A117.22,117.22,0,0,0,272.32,77.4a99.29,99.29,0,0,0-33.5-5.79,105.64,105.64,0,0,0-27.71,3.29,61.38,61.38,0,0,0-20,9.08A38.7,38.7,0,0,0,179,97.75a37,37,0,0,0-4.07,17.06,24.71,24.71,0,0,0,4.7,14.72,51.21,51.21,0,0,0,12.52,12.05,85.8,85.8,0,0,0,18.32,9.55A169.92,169.92,0,0,0,232.87,158q27.86,6.89,38.67,13.78t10.8,15.65q0,10-10,16.91t-30.68,6.89q-20.67,0-35.38-5.64a117.77,117.77,0,0,1-27.55-15Zm-22.54,79.8h89.13V265H143.64v22.28Z"/></svg>