<svg id="Layer_1" data-name="Layer 1" xmlns="http://www.w3.org/2000/svg" viewBox="0 0 1196.48 482.31"><defs><style>.cls-1{fill:none;}.cls-2{fill:#d53535;}.cls-2,.cls-5{fill-rule:evenodd;}.cls-3{font-size:272.06px;font-family:SourceCodePro-Bold, Source Code Pro;}.cls-3,.cls-4,.cls-5{fill:#fefefe;}.cls-3,.cls-7{font-weight:700;}.cls-4{font-size:313.1px;font-family:SourceCodePro-Regular, Source Code Pro;}.cls-6{font-size:306.08px;font-family:SourceCodePro-Light, Source Code Pro;letter-spacing:-0.09em;}.cls-6,.cls-7{fill:#fff;}.cls-7{font-size:105.98px;font-family:SourceCodePro-Semibold, Source Code Pro;}</style></defs><title>Artboard 1new-w</title><rect class="cls-1" y="31.83" width="1196.48" height="450.48"/><polygon class="cls-2" points="35.09 243.05 35.09 69.41 382.02 69.41 382.02 416.69 35.09 416.69 35.09 243.05"/><text class="cls-3" transform="translate(53.94 341.57)">&gt;</text><text class="cls-4" transform="translate(178.72 296.94)">s</text><polygon class="cls-5" points="178.73 345.55 178.73 334.41 267.86 334.41 267.86 356.7 178.73 356.7 178.73 345.55"/><text class="cls-6" transform="translate(384.39 254.05)">swerv</text><text class="cls-7" transform="translate(402.87 367.7)">TECHNOLOGIES</text><path class="cls-2" d="M35.09,243V69.41H382V416.69H35.09Zm150.53-5.68-105-68v36.18l72.09,45.16v1.09L80.6,297v36.18l105-68Zm15.66,39.53a150.26,150.26,0,0,0,33,16.75,118.13,118.13,0,0,0,41.49,7,106.36,106.36,0,0,0,29-3.6A67,67,0,0,0,326,287.23a43.29,43.29,0,0,0,13-14.4,36.43,36.43,0,0,0,4.38-17.53q0-17.53-14.87-27.55T282.67,209.9q-20.66-5.32-33.5-11.43T236.34,183a20,20,0,0,1,1.88-8.45,17.39,17.39,0,0,1,6.26-7,35.25,35.25,0,0,1,11.58-4.7,78.39,78.39,0,0,1,17.85-1.72,77.31,77.31,0,0,1,26.3,4.38A90.1,90.1,0,0,1,322.44,177L335,160.43a117.22,117.22,0,0,0-27.55-13.62,99.29,99.29,0,0,0-33.5-5.79,105.64,105.64,0,0,0-27.71,3.29,61.38,61.38,0,0,0-20,9.08,38.7,38.7,0,0,0-12.05,13.78A37,37,0,0,0,210,184.22a24.71,24.71,0,0,0,4.7,14.72A51.21,51.21,0,0,0,227.26,211a85.8,85.8,0,0,0,18.32,9.55A169.92,169.92,0,0,0,268,227.43q27.86,6.89,38.67,13.78t10.8,15.65q0,10-10,16.91t-30.68,6.89q-20.67,0-35.38-5.64a117.77,117.77,0,0,1-27.55-15Zm-22.54,79.8h89.13V334.41H178.73V356.7Z"/></svg>