<svg id="Layer_1" data-name="Layer 1" xmlns="http://www.w3.org/2000/svg" viewBox="0 0 1196.48 482.31"><defs><style>.cls-1{fill:none;}.cls-2{fill:#d53535;}.cls-2,.cls-5{fill-rule:evenodd;}.cls-3{font-size:272.06px;font-family:SourceCodePro-Bold, Source Code Pro;}.cls-3,.cls-4,.cls-5{fill:#fefefe;}.cls-3,.cls-7{font-weight:700;}.cls-4{font-size:313.1px;font-family:SourceCodePro-Regular, Source Code Pro;}.cls-6{font-size:306.08px;font-family:SourceCodePro-Light, Source Code Pro;letter-spacing:-0.09em;}.cls-6,.cls-7{fill:#1a1a1a;}.cls-7{font-size:105.98px;font-family:SourceCodePro-Semibold, Source Code Pro;}</style></defs><title>Artboard 1</title><rect class="cls-1" y="31.83" width="1196.48" height="450.48"/><polygon class="cls-2" points="35.09 243.05 35.09 69.41 382.02 69.41 382.02 416.69 35.09 416.69 35.09 243.05"/><text class="cls-3" transform="translate(53.94 341.57)">&gt;</text><text class="cls-4" transform="translate(178.72 296.94)">s</text><polygon class="cls-5" points="178.73 345.55 178.73 334.41 267.86 334.41 267.86 356.7 178.73 356.7 178.73 345.55"/><text class="cls-6" transform="translate(384.39 254.05)">swerv</text><text class="cls-7" transform="translate(402.87 367.7)">TECHNOLOGIES</text><polygon class="cls-2" points="35.09 243.05 35.09 69.41 382.02 69.41 382.02 416.69 35.09 416.69 35.09 243.05"/><text class="cls-3" transform="translate(53.94 341.57)">&gt;</text><text class="cls-4" transform="translate(178.72 296.94)">s</text><polygon class="cls-5" points="178.73 345.55 178.73 334.41 267.86 334.41 267.86 356.7 178.73 356.7 178.73 345.55"/><text class="cls-6" transform="translate(384.39 254.05)">swerv</text><text class="cls-7" transform="translate(402.87 367.7)">TECHNOLOGIES</text></svg>